<svg width="35" height="15" viewBox="0 0 35 15" fill="none" xmlns="http://www.w3.org/2000/svg">
<rect width="35" height="15" rx="3" fill="#28BCBA"/>
<path d="M10.395 4.805H6.265L8.835 8.045V8.4L6.265 11.64H10.395V12.675H4.355V12.245C4.355 12.185 4.365 12.1217 4.385 12.055C4.405 11.9917 4.43833 11.9317 4.485 11.875L7.46 8.21L4.485 4.57C4.43833 4.51333 4.405 4.45333 4.385 4.39C4.365 4.32333 4.355 4.26 4.355 4.2V3.77H10.395V4.805ZM19.4628 2.47L16.7128 11H15.6728L14.4878 7.79H13.8828C13.7561 7.79 13.6461 7.75333 13.5528 7.68C13.4628 7.60333 13.4178 7.475 13.4178 7.295V6.9H15.1778C15.2711 6.9 15.3478 6.92167 15.4078 6.965C15.4711 7.00833 15.5128 7.06333 15.5328 7.13L16.0428 8.685C16.0895 8.825 16.1261 8.965 16.1528 9.105C16.1828 9.245 16.2061 9.38833 16.2228 9.535C16.2428 9.42167 16.2645 9.30833 16.2878 9.195C16.3145 9.07833 16.3445 8.96 16.3778 8.84L18.3078 2.7C18.3311 2.63333 18.3728 2.57833 18.4328 2.535C18.4928 2.49167 18.5645 2.47 18.6478 2.47H19.4628ZM25.6254 5.52C25.6254 5.79333 25.5787 6.04 25.4854 6.26C25.3954 6.48 25.2737 6.66833 25.1204 6.825C24.9671 6.97833 24.7887 7.09667 24.5854 7.18C24.3821 7.26333 24.1704 7.305 23.9504 7.305C23.7104 7.305 23.4887 7.26333 23.2854 7.18C23.0821 7.09667 22.9054 6.97833 22.7554 6.825C22.6087 6.66833 22.4937 6.48 22.4104 6.26C22.3271 6.04 22.2854 5.79333 22.2854 5.52C22.2854 5.24 22.3271 4.98667 22.4104 4.76C22.4937 4.53333 22.6087 4.34167 22.7554 4.185C22.9054 4.02833 23.0821 3.90833 23.2854 3.825C23.4887 3.73833 23.7104 3.695 23.9504 3.695C24.1904 3.695 24.4121 3.73833 24.6154 3.825C24.8221 3.90833 25.0004 4.02833 25.1504 4.185C25.3004 4.34167 25.4171 4.53333 25.5004 4.76C25.5837 4.98667 25.6254 5.24 25.6254 5.52ZM24.6754 5.52C24.6754 5.32667 24.6554 5.165 24.6154 5.035C24.5787 4.905 24.5271 4.8 24.4604 4.72C24.3971 4.64 24.3204 4.58333 24.2304 4.55C24.1437 4.51333 24.0504 4.495 23.9504 4.495C23.8504 4.495 23.7571 4.51333 23.6704 4.55C23.5837 4.58333 23.5087 4.64 23.4454 4.72C23.3854 4.8 23.3371 4.905 23.3004 5.035C23.2637 5.165 23.2454 5.32667 23.2454 5.52C23.2454 5.70667 23.2637 5.86333 23.3004 5.99C23.3371 6.11333 23.3854 6.21333 23.4454 6.29C23.5087 6.36667 23.5837 6.42167 23.6704 6.455C23.7571 6.48833 23.8504 6.505 23.9504 6.505C24.0504 6.505 24.1437 6.48833 24.2304 6.455C24.3204 6.42167 24.3971 6.36667 24.4604 6.29C24.5271 6.21333 24.5787 6.11333 24.6154 5.99C24.6554 5.86333 24.6754 5.70667 24.6754 5.52ZM28.0304 3.965C28.0737 3.915 28.1237 3.87 28.1804 3.83C28.2404 3.79 28.3237 3.77 28.4304 3.77H29.3304L23.9604 10.815C23.9171 10.8683 23.8654 10.9133 23.8054 10.95C23.7454 10.9833 23.6721 11 23.5854 11H22.6654L28.0304 3.965ZM29.7104 9.3C29.7104 9.57333 29.6637 9.82 29.5704 10.04C29.4804 10.26 29.3587 10.4483 29.2054 10.605C29.0521 10.7583 28.8737 10.8783 28.6704 10.965C28.4671 11.0483 28.2554 11.09 28.0354 11.09C27.7954 11.09 27.5737 11.0483 27.3704 10.965C27.1671 10.8783 26.9904 10.7583 26.8404 10.605C26.6937 10.4483 26.5787 10.26 26.4954 10.04C26.4121 9.82 26.3704 9.57333 26.3704 9.3C26.3704 9.02 26.4121 8.76667 26.4954 8.54C26.5787 8.31333 26.6937 8.12167 26.8404 7.965C26.9904 7.80833 27.1671 7.68833 27.3704 7.605C27.5737 7.51833 27.7954 7.475 28.0354 7.475C28.2754 7.475 28.4971 7.51833 28.7004 7.605C28.9071 7.68833 29.0837 7.80833 29.2304 7.965C29.3804 8.12167 29.4971 8.31333 29.5804 8.54C29.6671 8.76667 29.7104 9.02 29.7104 9.3ZM28.7554 9.3C28.7554 9.10667 28.7371 8.945 28.7004 8.815C28.6637 8.685 28.6121 8.58 28.5454 8.5C28.4821 8.42 28.4054 8.36333 28.3154 8.33C28.2287 8.29333 28.1354 8.275 28.0354 8.275C27.9354 8.275 27.8421 8.29333 27.7554 8.33C27.6687 8.36333 27.5937 8.42 27.5304 8.5C27.4671 8.58 27.4171 8.685 27.3804 8.815C27.3471 8.945 27.3304 9.10667 27.3304 9.3C27.3304 9.48667 27.3471 9.64333 27.3804 9.77C27.4171 9.89667 27.4671 9.99833 27.5304 10.075C27.5937 10.1517 27.6687 10.2067 27.7554 10.24C27.8421 10.2733 27.9354 10.29 28.0354 10.29C28.1354 10.29 28.2287 10.2733 28.3154 10.24C28.4054 10.2067 28.4821 10.1517 28.5454 10.075C28.6121 9.99833 28.6637 9.89667 28.7004 9.77C28.7371 9.64333 28.7554 9.48667 28.7554 9.3Z" fill="white"/>
</svg>
