<svg width="35" height="15" viewBox="0 0 35 15" fill="none" xmlns="http://www.w3.org/2000/svg">
<rect width="35" height="15" rx="3" fill="#28BCBA"/>
<path d="M10.175 10.075V11H6.175V10.075H7.64V5.86C7.64 5.69333 7.645 5.52167 7.655 5.345L6.615 6.215C6.555 6.26167 6.495 6.29167 6.435 6.305C6.37833 6.315 6.32333 6.315 6.27 6.305C6.22 6.295 6.175 6.27833 6.135 6.255C6.095 6.22833 6.065 6.2 6.045 6.17L5.655 5.635L7.86 3.76H8.875V10.075H10.175ZM17.5254 8.27L16.6454 5.865C16.6021 5.75833 16.5571 5.63167 16.5104 5.485C16.4637 5.33833 16.4171 5.18 16.3704 5.01C16.3271 5.18 16.2821 5.34 16.2354 5.49C16.1887 5.63667 16.1437 5.765 16.1004 5.875L15.2254 8.27H17.5254ZM19.9004 11H18.8604C18.7437 11 18.6487 10.9717 18.5754 10.915C18.5021 10.855 18.4471 10.7817 18.4104 10.695L17.8704 9.22H14.8754L14.3354 10.695C14.3087 10.7717 14.2571 10.8417 14.1804 10.905C14.1037 10.9683 14.0087 11 13.8954 11H12.8454L15.6904 3.77H17.0604L19.9004 11ZM27.0884 6.99C26.9817 6.97 26.8717 6.96 26.7584 6.96C26.5517 6.96 26.3584 7.005 26.1784 7.095C25.9984 7.185 25.8417 7.30667 25.7084 7.46C25.5784 7.61333 25.475 7.79 25.3984 7.99C25.3217 8.18667 25.2834 8.39167 25.2834 8.605C25.2834 8.81833 25.3284 8.985 25.4184 9.105C25.5117 9.22167 25.6467 9.28 25.8234 9.28C25.91 9.28 25.9967 9.26667 26.0834 9.24C26.1734 9.21333 26.2584 9.16667 26.3384 9.1C26.4184 9.03 26.4917 8.93833 26.5584 8.825C26.625 8.71167 26.68 8.57 26.7234 8.4L27.0884 6.99ZM27.6734 8.27C27.62 8.48333 27.5934 8.65833 27.5934 8.795C27.5967 8.92833 27.6184 9.035 27.6584 9.115C27.6984 9.19167 27.755 9.245 27.8284 9.275C27.9017 9.305 27.985 9.32 28.0784 9.32C28.2184 9.32 28.35 9.27667 28.4734 9.19C28.6 9.1 28.71 8.975 28.8034 8.815C28.8967 8.655 28.97 8.465 29.0234 8.245C29.08 8.025 29.1084 7.785 29.1084 7.525C29.1084 7.09167 29.04 6.71 28.9034 6.38C28.77 6.05 28.5817 5.775 28.3384 5.555C28.095 5.33167 27.805 5.165 27.4684 5.055C27.135 4.94167 26.7684 4.885 26.3684 4.885C25.9284 4.885 25.5217 4.96833 25.1484 5.135C24.775 5.29833 24.45 5.52333 24.1734 5.81C23.9 6.09667 23.685 6.435 23.5284 6.825C23.375 7.215 23.2984 7.635 23.2984 8.085C23.2984 8.63167 23.3834 9.11333 23.5534 9.53C23.7234 9.94333 23.9567 10.29 24.2534 10.57C24.55 10.8467 24.8984 11.055 25.2984 11.195C25.7017 11.335 26.1367 11.405 26.6034 11.405C26.86 11.405 27.1 11.39 27.3234 11.36C27.5467 11.3333 27.7517 11.295 27.9384 11.245C28.125 11.1983 28.295 11.1433 28.4484 11.08C28.6017 11.02 28.7384 10.955 28.8584 10.885C28.945 10.835 29.0217 10.82 29.0884 10.84C29.155 10.86 29.2034 10.91 29.2334 10.99L29.4034 11.435C29.0567 11.6617 28.6517 11.8467 28.1884 11.99C27.725 12.1333 27.1967 12.205 26.6034 12.205C26 12.205 25.4417 12.11 24.9284 11.92C24.415 11.73 23.97 11.4567 23.5934 11.1C23.22 10.7467 22.9267 10.315 22.7134 9.805C22.5034 9.295 22.3984 8.72167 22.3984 8.085C22.3984 7.72833 22.4434 7.38167 22.5334 7.045C22.6267 6.70833 22.7584 6.39333 22.9284 6.1C23.0984 5.80333 23.3034 5.53167 23.5434 5.285C23.7834 5.03833 24.05 4.82667 24.3434 4.65C24.6367 4.47333 24.9534 4.33667 25.2934 4.24C25.6367 4.14 25.995 4.09 26.3684 4.09C26.8417 4.09 27.295 4.17 27.7284 4.33C28.165 4.48667 28.55 4.71333 28.8834 5.01C29.22 5.30333 29.4884 5.66333 29.6884 6.09C29.8884 6.51333 29.9884 6.99167 29.9884 7.525C29.9884 7.88167 29.935 8.21667 29.8284 8.53C29.725 8.84 29.5784 9.11 29.3884 9.34C29.2017 9.57 28.98 9.75167 28.7234 9.885C28.47 10.015 28.1934 10.08 27.8934 10.08C27.6634 10.08 27.46 10.0267 27.2834 9.92C27.1067 9.81333 26.985 9.64167 26.9184 9.405C26.7217 9.645 26.5134 9.81667 26.2934 9.92C26.0734 10.0233 25.835 10.075 25.5784 10.075C25.3684 10.075 25.185 10.0383 25.0284 9.965C24.875 9.89167 24.745 9.79167 24.6384 9.665C24.535 9.535 24.4567 9.38333 24.4034 9.21C24.3534 9.03333 24.3284 8.84167 24.3284 8.635C24.3284 8.445 24.3517 8.25333 24.3984 8.06C24.4484 7.86333 24.5217 7.675 24.6184 7.495C24.715 7.31167 24.835 7.14167 24.9784 6.985C25.125 6.825 25.295 6.68667 25.4884 6.57C25.685 6.45 25.905 6.35667 26.1484 6.29C26.395 6.22 26.665 6.185 26.9584 6.185C27.2184 6.185 27.44 6.205 27.6234 6.245C27.8067 6.285 27.9834 6.34167 28.1534 6.415L27.6734 8.27Z" fill="white"/>
</svg>
