<svg width="35" height="15" viewBox="0 0 35 15" fill="none" xmlns="http://www.w3.org/2000/svg">
<rect width="35" height="15" rx="3" fill="#28BCBA"/>
<path d="M11.175 10.075V11H7.175V10.075H8.64V5.86C8.64 5.69333 8.645 5.52167 8.655 5.345L7.615 6.215C7.555 6.26167 7.495 6.29167 7.435 6.305C7.37833 6.315 7.32333 6.315 7.27 6.305C7.22 6.295 7.175 6.27833 7.135 6.255C7.095 6.22833 7.065 6.2 7.045 6.17L6.655 5.635L8.86 3.76H9.875V10.075H11.175ZM18.5254 8.27L17.6454 5.865C17.6021 5.75833 17.5571 5.63167 17.5104 5.485C17.4637 5.33833 17.4171 5.18 17.3704 5.01C17.3271 5.18 17.2821 5.34 17.2354 5.49C17.1887 5.63667 17.1437 5.765 17.1004 5.875L16.2254 8.27H18.5254ZM20.9004 11H19.8604C19.7437 11 19.6487 10.9717 19.5754 10.915C19.5021 10.855 19.4471 10.7817 19.4104 10.695L18.8704 9.22H15.8754L15.3354 10.695C15.3087 10.7717 15.2571 10.8417 15.1804 10.905C15.1037 10.9683 15.0087 11 14.8954 11H13.8454L16.6904 3.77H18.0604L20.9004 11ZM23.6284 8.06H28.0584V8.98H23.6284V8.06ZM23.6284 6.3H28.0584V7.215H23.6284V6.3Z" fill="white"/>
</svg>
