<svg width="35" height="15" viewBox="0 0 35 15" fill="none" xmlns="http://www.w3.org/2000/svg">
<rect width="35" height="15" rx="3" fill="#28BCBA"/>
<path d="M11.175 10.075V11H7.175V10.075H8.64V5.86C8.64 5.69333 8.645 5.52167 8.655 5.345L7.615 6.215C7.555 6.26167 7.495 6.29167 7.435 6.305C7.37833 6.315 7.32333 6.315 7.27 6.305C7.22 6.295 7.175 6.27833 7.135 6.255C7.095 6.22833 7.065 6.2 7.045 6.17L6.655 5.635L8.86 3.76H9.875V10.075H11.175ZM19.1374 9.85C19.2708 9.85 19.3758 9.88833 19.4524 9.965C19.5324 10.0383 19.5724 10.1367 19.5724 10.26V11H14.6124V10.59C14.6124 10.5067 14.6291 10.42 14.6624 10.33C14.6991 10.2367 14.7558 10.1533 14.8324 10.08L17.0274 7.88C17.2108 7.69333 17.3741 7.515 17.5174 7.345C17.6641 7.175 17.7858 7.00667 17.8824 6.84C17.9791 6.67333 18.0524 6.505 18.1024 6.335C18.1558 6.16167 18.1824 5.98 18.1824 5.79C18.1824 5.61667 18.1574 5.465 18.1074 5.335C18.0574 5.20167 17.9858 5.09 17.8924 5C17.8024 4.91 17.6924 4.84333 17.5624 4.8C17.4358 4.75333 17.2924 4.73 17.1324 4.73C16.9858 4.73 16.8491 4.75167 16.7224 4.795C16.5991 4.835 16.4891 4.89333 16.3924 4.97C16.2958 5.04333 16.2141 5.13 16.1474 5.23C16.0808 5.33 16.0308 5.44 15.9974 5.56C15.9408 5.71333 15.8674 5.815 15.7774 5.865C15.6874 5.915 15.5574 5.92667 15.3874 5.9L14.7374 5.785C14.7874 5.43833 14.8841 5.135 15.0274 4.875C15.1708 4.61167 15.3491 4.39333 15.5624 4.22C15.7791 4.04333 16.0258 3.91167 16.3024 3.825C16.5824 3.735 16.8824 3.69 17.2024 3.69C17.5358 3.69 17.8408 3.74 18.1174 3.84C18.3941 3.93667 18.6308 4.075 18.8274 4.255C19.0241 4.435 19.1774 4.65167 19.2874 4.905C19.3974 5.15833 19.4524 5.44 19.4524 5.75C19.4524 6.01667 19.4124 6.26333 19.3324 6.49C19.2558 6.71667 19.1508 6.93333 19.0174 7.14C18.8874 7.34667 18.7341 7.54667 18.5574 7.74C18.3808 7.93333 18.1958 8.13 18.0024 8.33L16.3724 9.995C16.5291 9.94833 16.6841 9.91333 16.8374 9.89C16.9941 9.86333 17.1424 9.85 17.2824 9.85H19.1374ZM23.0048 5.785C23.0548 5.43833 23.1515 5.135 23.2948 4.875C23.4382 4.61167 23.6165 4.39333 23.8298 4.22C24.0465 4.04333 24.2932 3.91167 24.5698 3.825C24.8498 3.735 25.1498 3.69 25.4698 3.69C25.8032 3.69 26.1032 3.73833 26.3698 3.835C26.6398 3.92833 26.8698 4.06 27.0598 4.23C27.2498 4.39667 27.3948 4.59333 27.4948 4.82C27.5982 5.04667 27.6498 5.29167 27.6498 5.555C27.6498 5.785 27.6232 5.98833 27.5698 6.165C27.5198 6.33833 27.4465 6.49 27.3498 6.62C27.2532 6.75 27.1332 6.86 26.9898 6.95C26.8465 7.04 26.6848 7.115 26.5048 7.175C26.9382 7.31167 27.2615 7.52 27.4748 7.8C27.6882 8.08 27.7948 8.43167 27.7948 8.855C27.7948 9.215 27.7282 9.53333 27.5948 9.81C27.4615 10.0867 27.2815 10.32 27.0548 10.51C26.8282 10.6967 26.5648 10.8383 26.2648 10.935C25.9682 11.0317 25.6532 11.08 25.3198 11.08C24.9565 11.08 24.6398 11.0383 24.3698 10.955C24.0998 10.8717 23.8648 10.7483 23.6648 10.585C23.4648 10.4217 23.2948 10.2217 23.1548 9.985C23.0148 9.74833 22.8948 9.475 22.7948 9.165L23.3398 8.94C23.4832 8.88 23.6165 8.865 23.7398 8.895C23.8665 8.92167 23.9582 8.98833 24.0148 9.095C24.0748 9.21167 24.1398 9.32667 24.2098 9.44C24.2832 9.55333 24.3698 9.655 24.4698 9.745C24.5698 9.83167 24.6865 9.90333 24.8198 9.96C24.9565 10.0133 25.1182 10.04 25.3048 10.04C25.5148 10.04 25.6982 10.0067 25.8548 9.94C26.0115 9.87 26.1415 9.78 26.2448 9.67C26.3515 9.56 26.4298 9.43833 26.4798 9.305C26.5332 9.16833 26.5598 9.03167 26.5598 8.895C26.5598 8.72167 26.5415 8.565 26.5048 8.425C26.4682 8.28167 26.3915 8.16 26.2748 8.06C26.1582 7.96 25.9898 7.88167 25.7698 7.825C25.5532 7.76833 25.2615 7.74 24.8948 7.74V6.86C25.1982 6.85667 25.4498 6.82833 25.6498 6.775C25.8498 6.72167 26.0082 6.64833 26.1248 6.555C26.2448 6.45833 26.3282 6.34333 26.3748 6.21C26.4215 6.07667 26.4448 5.93 26.4448 5.77C26.4448 5.43 26.3498 5.17167 26.1598 4.995C25.9698 4.81833 25.7165 4.73 25.3998 4.73C25.2532 4.73 25.1182 4.75167 24.9948 4.795C24.8715 4.835 24.7598 4.89333 24.6598 4.97C24.5632 5.04333 24.4815 5.13 24.4148 5.23C24.3482 5.33 24.2982 5.44 24.2648 5.56C24.2082 5.71333 24.1332 5.815 24.0398 5.865C23.9498 5.915 23.8215 5.92667 23.6548 5.9L23.0048 5.785Z" fill="white"/>
</svg>
