<svg width="35" height="15" viewBox="0 0 35 15" fill="none" xmlns="http://www.w3.org/2000/svg">
<g clip-path="url(#clip0_191_16)">
<rect width="35" height="15" rx="3" fill="#28BCBA"/>
<path d="M10.712 7.36C10.616 7.41867 10.52 7.46933 10.424 7.512C10.3333 7.54933 10.2373 7.576 10.136 7.592C10.344 7.624 10.536 7.69867 10.712 7.816L11.984 8.56L11.52 9.36L10.248 8.616C10.152 8.55733 10.0613 8.496 9.976 8.432C9.896 8.368 9.82667 8.29867 9.768 8.224C9.83733 8.4 9.872 8.60267 9.872 8.832V10.304H8.928V8.84C8.928 8.73333 8.93333 8.62933 8.944 8.528C8.96 8.42667 8.984 8.33067 9.016 8.24C8.95733 8.31467 8.888 8.38133 8.808 8.44C8.728 8.49867 8.64267 8.55733 8.552 8.616L7.288 9.352L6.816 8.552L8.088 7.816C8.29067 7.69867 8.48267 7.624 8.664 7.592C8.47733 7.56 8.28533 7.48267 8.088 7.36L6.816 6.616L7.28 5.816L8.552 6.568C8.648 6.62667 8.736 6.688 8.816 6.752C8.896 6.81067 8.968 6.87733 9.032 6.952C8.96267 6.776 8.928 6.576 8.928 6.352V4.872H9.872V6.336C9.872 6.448 9.864 6.55467 9.848 6.656C9.83733 6.75733 9.81333 6.85333 9.776 6.944C9.84 6.86933 9.912 6.80267 9.992 6.744C10.072 6.68533 10.1573 6.62667 10.248 6.568L11.512 5.832L11.984 6.632L10.712 7.36ZM18.7889 7.36C18.6929 7.41867 18.5969 7.46933 18.5009 7.512C18.4102 7.54933 18.3142 7.576 18.2129 7.592C18.4209 7.624 18.6129 7.69867 18.7889 7.816L20.0609 8.56L19.5969 9.36L18.3249 8.616C18.2289 8.55733 18.1382 8.496 18.0529 8.432C17.9729 8.368 17.9035 8.29867 17.8449 8.224C17.9142 8.4 17.9489 8.60267 17.9489 8.832V10.304H17.0049V8.84C17.0049 8.73333 17.0102 8.62933 17.0209 8.528C17.0369 8.42667 17.0609 8.33067 17.0929 8.24C17.0342 8.31467 16.9649 8.38133 16.8849 8.44C16.8049 8.49867 16.7195 8.55733 16.6289 8.616L15.3649 9.352L14.8929 8.552L16.1649 7.816C16.3675 7.69867 16.5595 7.624 16.7409 7.592C16.5542 7.56 16.3622 7.48267 16.1649 7.36L14.8929 6.616L15.3569 5.816L16.6289 6.568C16.7249 6.62667 16.8129 6.688 16.8929 6.752C16.9729 6.81067 17.0449 6.87733 17.1089 6.952C17.0395 6.776 17.0049 6.576 17.0049 6.352V4.872H17.9489V6.336C17.9489 6.448 17.9409 6.55467 17.9249 6.656C17.9142 6.75733 17.8902 6.85333 17.8529 6.944C17.9169 6.86933 17.9889 6.80267 18.0689 6.744C18.1489 6.68533 18.2342 6.62667 18.3249 6.568L19.5889 5.832L20.0609 6.632L18.7889 7.36ZM26.8657 7.36C26.7697 7.41867 26.6737 7.46933 26.5777 7.512C26.4871 7.54933 26.3911 7.576 26.2897 7.592C26.4977 7.624 26.6897 7.69867 26.8657 7.816L28.1377 8.56L27.6737 9.36L26.4017 8.616C26.3057 8.55733 26.2151 8.496 26.1297 8.432C26.0497 8.368 25.9804 8.29867 25.9217 8.224C25.9911 8.4 26.0257 8.60267 26.0257 8.832V10.304H25.0817V8.84C25.0817 8.73333 25.0871 8.62933 25.0977 8.528C25.1137 8.42667 25.1377 8.33067 25.1697 8.24C25.1111 8.31467 25.0417 8.38133 24.9617 8.44C24.8817 8.49867 24.7964 8.55733 24.7057 8.616L23.4417 9.352L22.9697 8.552L24.2417 7.816C24.4444 7.69867 24.6364 7.624 24.8177 7.592C24.6311 7.56 24.4391 7.48267 24.2417 7.36L22.9697 6.616L23.4337 5.816L24.7057 6.568C24.8017 6.62667 24.8897 6.688 24.9697 6.752C25.0497 6.81067 25.1217 6.87733 25.1857 6.952C25.1164 6.776 25.0817 6.576 25.0817 6.352V4.872H26.0257V6.336C26.0257 6.448 26.0177 6.55467 26.0017 6.656C25.9911 6.75733 25.9671 6.85333 25.9297 6.944C25.9937 6.86933 26.0657 6.80267 26.1457 6.744C26.2257 6.68533 26.3111 6.62667 26.4017 6.568L27.6657 5.832L28.1377 6.632L26.8657 7.36Z" fill="white"/>
</g>
<defs>
<clipPath id="clip0_191_16">
<rect width="35" height="15" rx="3" fill="white"/>
</clipPath>
</defs>
</svg>
