<svg width="35" height="15" viewBox="0 0 35 15" fill="none" xmlns="http://www.w3.org/2000/svg">
<rect width="35" height="15" rx="3" fill="#28BCBA"/>
<path d="M10.625 8.27L9.745 5.865C9.70167 5.75833 9.65667 5.63167 9.61 5.485C9.56333 5.33833 9.51667 5.18 9.47 5.01C9.42667 5.18 9.38167 5.34 9.335 5.49C9.28833 5.63667 9.24333 5.765 9.2 5.875L8.325 8.27H10.625ZM13 11H11.96C11.8433 11 11.7483 10.9717 11.675 10.915C11.6017 10.855 11.5467 10.7817 11.51 10.695L10.97 9.22H7.975L7.435 10.695C7.40833 10.7717 7.35667 10.8417 7.28 10.905C7.20333 10.9683 7.10833 11 6.995 11H5.945L8.79 3.77H10.16L13 11ZM14.4284 8.06H18.8584V8.98H14.4284V8.06ZM14.4284 6.3H18.8584V7.215H14.4284V6.3ZM24.9691 8.27L24.0891 5.865C24.0458 5.75833 24.0008 5.63167 23.9541 5.485C23.9075 5.33833 23.8608 5.18 23.8141 5.01C23.7708 5.18 23.7258 5.34 23.6791 5.49C23.6325 5.63667 23.5875 5.765 23.5441 5.875L22.6691 8.27H24.9691ZM27.3441 11H26.3041C26.1875 11 26.0925 10.9717 26.0191 10.915C25.9458 10.855 25.8908 10.7817 25.8541 10.695L25.3141 9.22H22.3191L21.7791 10.695C21.7525 10.7717 21.7008 10.8417 21.6241 10.905C21.5475 10.9683 21.4525 11 21.3391 11H20.2891L23.1341 3.77H24.5041L27.3441 11Z" fill="white"/>
</svg>
